<svg width="93" height="75" viewBox="0 0 93 75" fill="none" xmlns="http://www.w3.org/2000/svg">
<g id="Frame 1041">
<path id="Union" fill-rule="evenodd" clip-rule="evenodd" d="M91.0571 7.84983C92.9071 6.19031 93.0615 3.34526 91.402 1.49522C89.7425 -0.354814 86.8975 -0.50926 85.0474 1.15026C83.1974 2.80977 83.0429 5.65483 84.7025 7.50486C86.362 9.3549 89.207 9.50934 91.0571 7.84983ZM80.6976 10.1453V28.1453C80.6976 28.6976 80.2499 29.1453 79.6976 29.1453C79.1453 29.1453 78.6976 28.6976 78.6976 28.1453V12.8658C67.8461 20.551 64.169 27.6583 58.7047 38.2198L58.7047 38.2199L58.7046 38.2201C56.9439 41.6233 54.9976 45.3852 52.5659 49.6407C39.3611 72.749 14.2582 74.5622 1.69249 74.6419C1.14022 74.6454 0.697632 74.1973 0.697632 73.645C0.697632 73.0927 1.14069 72.6454 1.69296 72.6418C14.2059 72.5598 38.2176 70.719 50.8294 48.6484C53.1672 44.5573 55.0666 40.8827 56.8071 37.5156C62.1255 27.2268 65.9603 19.8082 76.2844 12.1453L62.6976 12.1453C62.1453 12.1453 61.6976 11.6976 61.6976 11.1453C61.6976 10.593 62.1453 10.1453 62.6976 10.1453H80.6976Z" fill="#E23125"/>
</g>
</svg>
