<svg width="84" height="80" viewBox="0 0 84 80" fill="none" xmlns="http://www.w3.org/2000/svg">
<g id="Frame 1042">
<path id="Union" fill-rule="evenodd" clip-rule="evenodd" d="M2.75992 31.0088L26.5177 2.71402C27.228 1.8681 28.4895 1.75814 29.3354 2.46842L80.7444 45.634C81.5903 46.3443 81.7003 47.6059 80.99 48.4518L57.2322 76.7466C56.522 77.5925 55.2604 77.7025 54.4145 76.9922L3.00552 33.8266C2.15961 33.1163 2.04965 31.8547 2.75992 31.0088ZM1.71945 35.3582C0.0276139 33.9377 -0.192303 31.4146 1.22825 29.7228L24.986 1.42795C26.4066 -0.263889 28.9297 -0.483807 30.6215 0.936747L82.0305 44.1024C83.7223 45.5229 83.9422 48.046 82.5217 49.7378L58.7639 78.0327C57.3434 79.7245 54.8203 79.9444 53.1284 78.5239L1.71945 35.3582ZM63.6679 58.559C65.5179 56.8995 65.6724 54.0544 64.0128 52.2044C62.3533 50.3543 59.5083 50.1999 57.6582 51.8594C55.8082 53.5189 55.6538 56.364 57.3133 58.214C58.9728 60.064 61.8178 60.2185 63.6679 58.559Z" fill="#E23125"/>
</g>
</svg>
