<svg width="82" height="76" viewBox="0 0 82 76" fill="none" xmlns="http://www.w3.org/2000/svg">
<path fill-rule="evenodd" clip-rule="evenodd" d="M13.4314 1.82986C13.8897 1.52162 14.0113 0.900243 13.7031 0.44198C13.3948 -0.0162831 12.7734 -0.137899 12.3152 0.170344C6.93728 3.7877 3.12682 8.70595 1.34142 13.7729C-0.444002 18.84 -0.218895 24.1241 2.61022 28.3301C3.89126 30.2346 5.56958 31.7267 7.522 32.8134C4.59956 42.2159 5.6971 52.415 11.463 60.9871C22.1577 76.887 44.8917 80.1254 62.1796 68.4969C75.8377 59.3101 82.1685 43.509 78.9759 29.4267C79.8339 29.0211 80.571 28.3418 81.0424 27.4348C82.1885 25.2295 81.3299 22.5127 79.1246 21.3667C76.9194 20.2206 74.2026 21.0792 73.0565 23.2845C71.9104 25.4897 72.7691 28.2065 74.9743 29.3526C75.6304 29.6935 76.3317 29.8571 77.0235 29.8605C80.0227 43.0744 74.0964 58.071 61.0634 66.8374C44.5396 77.9519 23.103 74.7089 13.1225 59.8709C7.79694 51.9534 6.70063 42.482 9.34656 33.6808C14.1604 35.6116 20.2141 35.4345 26.0356 33.2342L26.0468 33.262C26.4726 33.0917 26.9013 32.9073 27.3318 32.709C27.694 32.5522 28.0548 32.3875 28.4139 32.215L28.4016 32.1894C30.1336 31.3047 31.8809 30.2006 33.575 28.8921C37.4418 25.9051 40.3623 22.3687 41.934 19.0243C43.4804 15.7336 43.8361 12.3365 41.9956 9.95389C40.1551 7.57124 36.7784 7.05726 33.2038 7.72229C30.1532 8.28984 26.7314 9.74342 23.4234 11.9633L23.4227 11.9622C16.1002 16.8876 10.9165 23.5831 8.18614 30.8739C6.61521 29.9436 5.28194 28.7187 4.26973 27.2139C1.87437 23.6527 1.59896 19.0601 3.22774 14.4376C4.85653 9.81509 8.37498 5.231 13.4314 1.82986ZM32.3523 27.3093C30.4207 28.8014 28.4283 30.002 26.495 30.8924C20.5687 33.4523 14.5546 33.6545 9.98425 31.7687C12.3188 25.4049 16.6404 19.4873 22.7579 14.8885L22.7671 14.9005C26.4359 12.0665 30.3085 10.2953 33.5696 9.68855C36.8892 9.07096 39.2688 9.69548 40.4128 11.1765C41.5568 12.6575 41.56 15.1177 40.1239 18.1737C38.7131 21.1758 36.0211 24.4753 32.3523 27.3093Z" fill="#E23125"/>
</svg>
