<svg width="58" height="58" viewBox="0 0 58 58" fill="none" xmlns="http://www.w3.org/2000/svg">
<path d="M19.5973 27.4C18.1747 27.4 16.8885 27.1564 15.7388 26.6692C14.6085 26.1821 13.7121 25.4805 13.0496 24.5646C12.387 23.6487 12.046 22.5672 12.0265 21.32H16.4111C16.4696 22.1579 16.7619 22.8205 17.288 23.3077C17.8337 23.7949 18.5742 24.0385 19.5096 24.0385C20.4644 24.0385 21.2147 23.8144 21.7603 23.3662C22.306 22.8985 22.5788 22.2944 22.5788 21.5538C22.5788 20.9497 22.3937 20.4528 22.0234 20.0631C21.6532 19.6733 21.1855 19.3713 20.6203 19.1569C20.0747 18.9231 19.3147 18.6697 18.3403 18.3969C17.0152 18.0072 15.9337 17.6272 15.0957 17.2569C14.2773 16.8672 13.566 16.2923 12.9619 15.5323C12.3773 14.7528 12.085 13.72 12.085 12.4338C12.085 11.2256 12.387 10.1733 12.9911 9.27692C13.5952 8.38051 14.4429 7.69846 15.5342 7.23077C16.6255 6.74359 17.8726 6.5 19.2757 6.5C21.3803 6.5 23.0855 7.01641 24.3911 8.04923C25.7162 9.06256 26.447 10.4851 26.5834 12.3169H22.0819C22.0429 11.6154 21.7408 11.0405 21.1757 10.5923C20.6301 10.1246 19.8993 9.89077 18.9834 9.89077C18.1844 9.89077 17.5414 10.0954 17.0542 10.5046C16.5865 10.9138 16.3526 11.5082 16.3526 12.2877C16.3526 12.8333 16.528 13.2913 16.8788 13.6615C17.2491 14.0123 17.6973 14.3046 18.2234 14.5385C18.7691 14.7528 19.5291 15.0062 20.5034 15.2985C21.8285 15.6882 22.9101 16.0779 23.748 16.4677C24.586 16.8574 25.307 17.4421 25.9111 18.2215C26.5152 19.001 26.8173 20.0241 26.8173 21.2908C26.8173 22.3821 26.5347 23.3954 25.9696 24.3308C25.4044 25.2662 24.5762 26.0164 23.485 26.5815C22.3937 27.1272 21.0978 27.4 19.5973 27.4Z" fill="#E23125"/>
<path d="M33.9353 6.79297V19.4207C33.9353 20.8043 34.2958 21.8663 35.0169 22.6068C35.7379 23.3278 36.7512 23.6884 38.0569 23.6884C39.382 23.6884 40.4051 23.3278 41.1261 22.6068C41.8471 21.8663 42.2076 20.8043 42.2076 19.4207V6.79297H46.3292V19.3914C46.3292 21.1258 45.9492 22.5971 45.1892 23.8053C44.4487 24.994 43.4451 25.8904 42.1784 26.4945C40.9312 27.0986 39.5379 27.4007 37.9984 27.4007C36.4784 27.4007 35.0948 27.0986 33.8476 26.4945C32.6199 25.8904 31.6456 24.994 30.9246 23.8053C30.2035 22.5971 29.843 21.1258 29.843 19.3914V6.79297H33.9353Z" fill="#E23125"/>
<path d="M38.6551 29.8852C40.0776 29.8852 41.3638 30.1287 42.5135 30.6159C43.6438 31.1031 44.5402 31.8046 45.2028 32.7205C45.8653 33.6364 46.2063 34.718 46.2258 35.9652H41.8412C41.7828 35.1272 41.4904 34.4646 40.9643 33.9775C40.4187 33.4903 39.6781 33.2467 38.7428 33.2467C37.7879 33.2467 37.0376 33.4708 36.492 33.919C35.9463 34.3867 35.6735 34.9908 35.6735 35.7313C35.6735 36.3354 35.8586 36.8323 36.2289 37.2221C36.5992 37.6118 37.0669 37.9139 37.632 38.1282C38.1776 38.3621 38.9376 38.6154 39.912 38.8882C41.2371 39.278 42.3187 39.658 43.1566 40.0282C43.9751 40.418 44.6863 40.9928 45.2904 41.7528C45.8751 42.5323 46.1674 43.5652 46.1674 44.8513C46.1674 46.0595 45.8653 47.1118 45.2612 48.0082C44.6571 48.9046 43.8094 49.5867 42.7181 50.0544C41.6269 50.5416 40.3797 50.7852 38.9766 50.7852C36.872 50.7852 35.1669 50.2687 33.8612 49.2359C32.5361 48.2226 31.8053 46.8 31.6689 44.9682H36.1704C36.2094 45.6698 36.5115 46.2446 37.0766 46.6928C37.6222 47.1605 38.353 47.3944 39.2689 47.3944C40.0679 47.3944 40.711 47.1898 41.1981 46.7805C41.6658 46.3713 41.8997 45.777 41.8997 44.9975C41.8997 44.4518 41.7243 43.9939 41.3735 43.6236C41.0033 43.2728 40.5551 42.9805 40.0289 42.7467C39.4833 42.5323 38.7233 42.279 37.7489 41.9867C36.4238 41.597 35.3422 41.2072 34.5043 40.8175C33.6663 40.4277 32.9453 39.8431 32.3412 39.0636C31.7371 38.2841 31.4351 37.2611 31.4351 35.9944C31.4351 34.9031 31.7176 33.8898 32.2828 32.9544C32.8479 32.019 33.6761 31.2687 34.7674 30.7036C35.8587 30.158 37.1545 29.8852 38.6551 29.8852Z" fill="#E23125"/>
<path d="M24.4187 50.7852V38.1575C24.4187 36.7739 24.0582 35.7118 23.3371 34.9713C22.6161 34.2503 21.6028 33.8898 20.2971 33.8898C18.972 33.8898 17.9489 34.2503 17.2279 34.9713C16.5069 35.7118 16.1464 36.7739 16.1464 38.1575V50.7852H12.0248V38.1867C12.0248 36.4523 12.4048 34.9811 13.1648 33.7728C13.9053 32.5841 14.9089 31.6877 16.1756 31.0836C17.4228 30.4795 18.8161 30.1775 20.3556 30.1775C21.8756 30.1775 23.2592 30.4795 24.5064 31.0836C25.7341 31.6877 26.7084 32.5841 27.4294 33.7728C28.1505 34.9811 28.511 36.4523 28.511 38.1867V50.7852H24.4187Z" fill="#E23125"/>
<rect x="1.33325" y="1.5" width="55" height="55" stroke="#E23125" stroke-width="2"/>
</svg>
