<svg width="143" height="88" viewBox="0 0 143 88" fill="none" xmlns="http://www.w3.org/2000/svg">
<path d="M29.0716 27.344C30.9916 27.344 32.6236 27.616 33.9676 28.16C35.3116 28.704 36.6236 29.472 37.9036 30.464C38.2556 30.752 38.5596 30.896 38.8156 30.896C39.4556 30.896 39.8716 29.936 40.0636 28.016H41.1676C41.0396 30.192 40.9756 34.064 40.9756 39.632H39.8716C39.5836 37.264 39.1996 35.456 38.7196 34.208C38.2396 32.96 37.4236 31.872 36.2716 30.944C35.4716 30.176 34.5436 29.6 33.4876 29.216C32.4316 28.8 31.3276 28.592 30.1756 28.592C26.9436 28.592 24.5436 30.176 22.9756 33.344C21.4076 36.48 20.6236 40.4 20.6236 45.104C20.6236 49.776 21.4396 53.68 23.0716 56.816C24.7036 59.952 27.1356 61.52 30.3676 61.52C31.4556 61.52 32.5276 61.328 33.5836 60.944C34.6716 60.528 35.5836 59.936 36.3196 59.168C37.5036 58.272 38.3196 57.152 38.7676 55.808C39.2476 54.464 39.6156 52.496 39.8716 49.904H40.9756C40.9756 55.696 41.0396 59.728 41.1676 62H40.0636C39.9676 60.976 39.8236 60.256 39.6316 59.84C39.4716 59.392 39.2316 59.168 38.9116 59.168C38.6556 59.168 38.3196 59.296 37.9036 59.552C36.4636 60.576 35.0876 61.36 33.7756 61.904C32.4636 62.416 30.8796 62.672 29.0236 62.672C25.6316 62.672 22.6556 61.984 20.0956 60.608C17.5676 59.232 15.5996 57.248 14.1916 54.656C12.7836 52.032 12.0796 48.912 12.0796 45.296C12.0796 41.776 12.7996 38.656 14.2396 35.936C15.6796 33.216 17.6796 31.104 20.2396 29.6C22.8316 28.096 25.7756 27.344 29.0716 27.344ZM70.1314 47.888C70.1314 48.56 70.0514 49.296 69.8914 50.096H51.3154C51.4114 52.112 51.9234 53.568 52.8514 54.464C53.7794 55.328 54.9634 55.76 56.4034 55.76C57.6194 55.76 58.6274 55.456 59.4274 54.848C60.2274 54.24 60.7554 53.456 61.0114 52.496H69.6994C69.3474 54.384 68.5794 56.08 67.3954 57.584C66.2114 59.056 64.7074 60.224 62.8834 61.088C61.0594 61.92 59.0274 62.336 56.7874 62.336C54.1634 62.336 51.8274 61.792 49.7794 60.704C47.7634 59.584 46.1794 57.984 45.0274 55.904C43.8754 53.824 43.2994 51.392 43.2994 48.608C43.2994 45.792 43.8594 43.36 44.9794 41.312C46.1314 39.232 47.7314 37.648 49.7794 36.56C51.8274 35.44 54.1634 34.88 56.7874 34.88C59.4434 34.88 61.7794 35.424 63.7954 36.512C65.8114 37.6 67.3634 39.136 68.4514 41.12C69.5714 43.072 70.1314 45.328 70.1314 47.888ZM61.8274 46.64C61.8594 44.88 61.3794 43.568 60.3874 42.704C59.4274 41.808 58.2274 41.36 56.7874 41.36C55.2834 41.36 54.0354 41.808 53.0434 42.704C52.0514 43.6 51.4914 44.912 51.3634 46.64H61.8274ZM80.6181 26.48V62H72.4101V26.48H80.6181ZM94.4611 34.88C96.5091 34.88 98.2691 35.344 99.7411 36.272C101.213 37.2 102.301 38.464 103.005 40.064V35.216H111.165V62H103.005V57.152C102.301 58.752 101.213 60.016 99.7411 60.944C98.2691 61.872 96.5091 62.336 94.4611 62.336C92.2531 62.336 90.2691 61.792 88.5091 60.704C86.7811 59.584 85.4051 57.984 84.3811 55.904C83.3891 53.824 82.8931 51.392 82.8931 48.608C82.8931 45.792 83.3891 43.36 84.3811 41.312C85.4051 39.232 86.7811 37.648 88.5091 36.56C90.2691 35.44 92.2531 34.88 94.4611 34.88ZM97.1011 42.08C95.3411 42.08 93.9171 42.656 92.8291 43.808C91.7731 44.96 91.2451 46.56 91.2451 48.608C91.2451 50.656 91.7731 52.256 92.8291 53.408C93.9171 54.56 95.3411 55.136 97.1011 55.136C98.8291 55.136 100.237 54.544 101.325 53.36C102.445 52.176 103.005 50.592 103.005 48.608C103.005 46.592 102.445 45.008 101.325 43.856C100.237 42.672 98.8291 42.08 97.1011 42.08Z" fill="#E23125"/>
</svg>
