<svg width="143" height="88" viewBox="0 0 143 88" fill="none" xmlns="http://www.w3.org/2000/svg">
<path d="M23.9316 61.704C22.7876 61.704 21.5263 61.5133 20.1476 61.132C18.7983 60.78 17.5663 60.252 16.4516 59.548V61.396H13.0636L13.5916 51.1H16.4956C16.7596 53.564 17.5956 55.4267 19.0036 56.688C20.441 57.92 22.1863 58.536 24.2396 58.536C25.7943 58.536 27.085 58.1253 28.1116 57.304C29.1676 56.4827 29.7103 55.5147 29.7396 54.4C29.7983 53.3733 29.4903 52.5227 28.8156 51.848C28.141 51.144 27.2756 50.5573 26.2196 50.088C25.1636 49.5893 24.093 49.12 23.0076 48.68C21.1596 47.9173 19.5023 47.0667 18.0356 46.128C16.569 45.1893 15.4396 44.06 14.6476 42.74C13.8556 41.42 13.5036 39.8067 13.5916 37.9C13.6503 36.9907 13.8703 36.052 14.2516 35.084C14.6623 34.0867 15.2783 33.1773 16.0996 32.356C16.9503 31.5053 18.0503 30.816 19.3996 30.288C20.749 29.76 22.3916 29.496 24.3276 29.496C25.501 29.496 26.777 29.672 28.1556 30.024C29.5343 30.376 30.6783 30.904 31.5876 31.608V29.804H34.9756L34.4476 40.056H31.5436C31.2796 37.6213 30.517 35.7733 29.2556 34.512C28.0236 33.2507 26.381 32.6347 24.3276 32.664C23.0663 32.664 21.937 33.016 20.9396 33.72C19.9716 34.424 19.4583 35.3333 19.3996 36.448C19.341 37.7973 19.8543 38.9267 20.9396 39.836C22.0543 40.7453 23.7996 41.684 26.1756 42.652C27.261 43.092 28.3756 43.6053 29.5196 44.192C30.6636 44.7787 31.705 45.468 32.6436 46.26C33.6116 47.052 34.3743 47.9907 34.9316 49.076C35.5183 50.132 35.7823 51.3787 35.7236 52.816C35.6356 54.5467 35.0783 56.0867 34.0516 57.436C33.0543 58.7853 31.6903 59.8413 29.9596 60.604C28.229 61.3373 26.2196 61.704 23.9316 61.704ZM47.7864 38.516C49.4291 38.516 50.9104 38.8973 52.2304 39.66C53.5798 40.4227 54.6504 41.5373 55.4424 43.004C56.2344 44.4707 56.6304 46.2453 56.6304 48.328C56.6304 50.6453 56.1758 52.816 55.2664 54.84C54.3864 56.8347 53.1251 58.448 51.4824 59.68C49.8398 60.8827 47.8744 61.484 45.5864 61.484C43.6211 61.484 41.9784 61.044 40.6584 60.164C39.3384 59.2547 38.3558 58.0373 37.7104 56.512C37.0651 54.9867 36.7424 53.3147 36.7424 51.496C36.7424 49.1493 37.1824 46.9933 38.0624 45.028C38.9718 43.0627 40.2478 41.4933 41.8904 40.32C43.5624 39.1173 45.5278 38.516 47.7864 38.516ZM47.1264 41.42C46.2464 41.3907 45.4691 41.7867 44.7944 42.608C44.1491 43.4 43.6358 44.4707 43.2544 45.82C42.9024 47.1693 42.7264 48.6507 42.7264 50.264C42.7264 51.144 42.7704 52.068 42.8584 53.036C42.9758 54.004 43.1664 54.9133 43.4304 55.764C43.7238 56.5853 44.0904 57.26 44.5304 57.788C44.9998 58.316 45.5864 58.58 46.2904 58.58C47.0531 58.58 47.6984 58.2867 48.2264 57.7C48.7544 57.1133 49.1798 56.3653 49.5024 55.456C49.8544 54.5173 50.1038 53.5347 50.2504 52.508C50.4264 51.4813 50.5291 50.5133 50.5584 49.604C50.5878 48.812 50.5584 47.9467 50.4704 47.008C50.3824 46.0693 50.2211 45.1747 49.9864 44.324C49.7518 43.4733 49.3998 42.784 48.9304 42.256C48.4611 41.6987 47.8598 41.42 47.1264 41.42ZM70.631 27.56C71.951 27.56 72.963 27.868 73.667 28.484C74.4003 29.1 74.767 29.8773 74.767 30.816C74.767 31.1387 74.679 31.52 74.503 31.96C74.327 32.3707 74.0336 32.7373 73.623 33.06C73.2416 33.3533 72.7136 33.5 72.039 33.5C71.3936 33.4707 70.8363 33.2067 70.367 32.708C69.927 32.18 69.7656 31.5347 69.883 30.772C69.7656 30.7133 69.575 30.684 69.311 30.684C68.8123 30.684 68.4016 30.948 68.079 31.476C67.7563 32.004 67.4923 32.6933 67.287 33.544C67.111 34.3947 66.9643 35.304 66.847 36.272C66.759 37.24 66.671 38.1493 66.583 39H72.259L71.951 42.036L66.407 42.124C66.319 43.3853 66.2163 44.8667 66.099 46.568C65.9816 48.24 65.8496 50 65.703 51.848C65.5563 53.6667 65.4096 55.4267 65.263 57.128C65.1163 58.8 64.9696 60.252 64.823 61.484C64.559 63.7427 64.0603 65.7373 63.327 67.468C62.5936 69.1987 61.567 70.5333 60.247 71.472C58.927 72.44 57.2696 72.924 55.275 72.924C53.9256 72.924 52.899 72.6307 52.195 72.044C51.4616 71.4867 51.095 70.724 51.095 69.756C51.095 69.404 51.183 69.008 51.359 68.568C51.535 68.128 51.8283 67.7467 52.239 67.424C52.6496 67.1013 53.1776 66.9547 53.823 66.984C54.4976 67.0133 55.055 67.2773 55.495 67.776C55.935 68.304 56.0963 68.9493 55.979 69.712C56.155 69.7707 56.3456 69.8 56.551 69.8C57.0496 69.8 57.4603 69.536 57.783 69.008C58.1056 68.48 58.355 67.7907 58.531 66.94C58.7363 66.0893 58.883 65.18 58.971 64.212C59.0883 63.244 59.191 62.3347 59.279 61.484C59.3963 60.2227 59.5136 58.756 59.631 57.084C59.7483 55.3827 59.8656 53.6227 59.983 51.804C60.1296 49.956 60.2616 48.196 60.379 46.524C60.5256 44.852 60.643 43.4 60.731 42.168L57.211 42.212L57.607 39H61.127C61.391 36.7413 61.875 34.7613 62.579 33.06C63.3123 31.3293 64.339 29.98 65.659 29.012C66.979 28.044 68.6363 27.56 70.631 27.56ZM81.3143 32.356L80.4343 39H85.9343L85.6703 42.036L80.1703 42.124C80.053 43.18 79.921 44.324 79.7743 45.556C79.6276 46.7587 79.4956 47.9467 79.3783 49.12C79.2903 50.264 79.2023 51.3053 79.1143 52.244C79.0556 53.1533 79.0263 53.8573 79.0263 54.356C79.0263 54.7373 79.0703 55.1627 79.1583 55.632C79.2463 56.072 79.437 56.4533 79.7303 56.776C80.0236 57.0987 80.493 57.26 81.1383 57.26C81.373 57.26 81.7103 57.2013 82.1503 57.084C82.6196 56.9373 83.1183 56.6733 83.6463 56.292C84.1743 55.9107 84.6583 55.3093 85.0983 54.488L87.3423 55.896C86.345 57.7733 85.1276 59.1813 83.6903 60.12C82.253 61.0293 80.713 61.484 79.0703 61.484C77.457 61.484 76.2396 61.1467 75.4183 60.472C74.6263 59.7973 74.0983 58.9173 73.8343 57.832C73.5703 56.7173 73.453 55.5587 73.4823 54.356C73.541 53.3587 73.6143 52.1853 73.7023 50.836C73.7903 49.4573 73.9076 48.02 74.0543 46.524C74.201 44.9987 74.3476 43.5467 74.4943 42.168L70.9743 42.212L71.3703 39C73.541 39 75.1396 38.428 76.1663 37.284C77.2223 36.14 77.9556 34.4973 78.3663 32.356H81.3143ZM90.9537 72.924C89.6044 72.924 88.563 72.6013 87.8297 71.956C87.1257 71.3107 86.7737 70.4893 86.7737 69.492C86.7737 68.5533 87.067 67.8053 87.6537 67.248C88.2697 66.6907 88.915 66.412 89.5897 66.412C91.1444 66.412 92.039 67.204 92.2737 68.788C92.3324 68.8173 92.4057 68.832 92.4937 68.832C92.5817 68.832 92.655 68.832 92.7137 68.832C93.2124 68.832 93.7257 68.6413 94.2537 68.26C94.811 67.8787 95.339 67.4093 95.8377 66.852C96.3364 66.2947 96.7764 65.7227 97.1577 65.136C97.5684 64.5787 97.8617 64.0947 98.0377 63.684C97.8324 62.276 97.495 60.7653 97.0257 59.152C96.5564 57.5093 96.0137 55.852 95.3977 54.18C94.811 52.4787 94.195 50.8507 93.5497 49.296C92.9044 47.712 92.303 46.2747 91.7457 44.984C91.5404 44.5147 91.2617 44.0013 90.9097 43.444C90.587 42.8867 90.1764 42.608 89.6777 42.608C89.2964 42.608 88.9004 42.8133 88.4897 43.224C88.1084 43.6347 87.8444 44.5293 87.6977 45.908L85.2337 45.556C85.2924 44.9107 85.439 44.192 85.6737 43.4C85.9377 42.608 86.319 41.8453 86.8177 41.112C87.3457 40.3493 88.0057 39.7333 88.7977 39.264C89.619 38.7653 90.6164 38.516 91.7897 38.516C92.7577 38.516 93.579 38.7507 94.2537 39.22C94.9577 39.66 95.5444 40.232 96.0137 40.936C96.5124 41.64 96.9084 42.3587 97.2017 43.092C97.6124 44.0893 98.111 45.38 98.6977 46.964C99.2844 48.548 99.8417 50.2787 100.37 52.156C100.927 54.004 101.367 55.8813 101.69 57.788H101.734C102.643 55.764 103.332 53.8427 103.802 52.024C104.3 50.2053 104.608 48.5627 104.726 47.096C104.755 46.7733 104.755 46.2747 104.726 45.6C104.696 44.896 104.52 44.368 104.198 44.016C104.08 44.0453 103.978 44.06 103.89 44.06C103.802 44.06 103.699 44.06 103.582 44.06C102.848 44.06 102.218 43.8107 101.69 43.312C101.162 42.8133 100.898 42.212 100.898 41.508C100.898 40.4813 101.22 39.7333 101.866 39.264C102.511 38.7653 103.2 38.516 103.934 38.516C105.019 38.516 105.884 38.824 106.53 39.44C107.204 40.056 107.688 40.8333 107.982 41.772C108.275 42.7107 108.422 43.6787 108.422 44.676C108.422 45.9373 108.216 47.4627 107.806 49.252C107.395 51.0413 106.808 52.948 106.046 54.972C105.312 56.9667 104.447 58.9467 103.45 60.912C102.335 63.0533 101.103 65.0333 99.7537 66.852C98.4044 68.7 96.9817 70.1667 95.4857 71.252C93.9897 72.3667 92.479 72.924 90.9537 72.924Z" fill="#E23125"/>
</svg>
