<svg width="161" height="88" viewBox="0 0 161 88" fill="none" xmlns="http://www.w3.org/2000/svg">
<path d="M25.7191 28.2C29.2684 28.2 32.0697 28.4347 34.1231 28.904C36.2057 29.3733 37.7017 30.1213 38.6111 31.148C39.5497 32.1747 40.0191 33.568 40.0191 35.328C40.0191 37.6747 39.3151 39.4053 37.9071 40.52C36.4991 41.6347 34.2551 42.3533 31.1751 42.676C33.6977 42.8813 35.7217 43.2773 37.2471 43.864C38.7724 44.4507 39.8871 45.316 40.5911 46.46C41.3244 47.5747 41.6911 49.056 41.6911 50.904C41.6911 52.9573 41.1337 54.5707 40.0191 55.744C38.9044 56.9173 37.1737 57.7533 34.8271 58.252C32.5097 58.7507 29.3857 59 25.4551 59H12.2111V58.12L13.8391 57.768C14.2791 57.68 14.5577 57.5773 14.6751 57.46C14.8217 57.3427 14.8951 57.1227 14.8951 56.8V30.4C14.8951 30.0773 14.8217 29.8573 14.6751 29.74C14.5577 29.6227 14.2791 29.52 13.8391 29.432L12.2111 29.08V28.2H25.7191ZM26.0271 42.104C27.8457 42.104 29.1951 41.5467 30.0751 40.432C30.9551 39.3173 31.3951 37.616 31.3951 35.328C31.3951 33.3627 30.9551 31.9107 30.0751 30.972C29.2244 30.004 27.8751 29.52 26.0271 29.52H23.8711V42.104H26.0271ZM23.8711 57.68H25.8511C30.3684 57.68 32.6271 55.4213 32.6271 50.904C32.6271 48.264 32.1577 46.3573 31.2191 45.184C30.2804 44.0107 28.6084 43.424 26.2031 43.424H23.8711V57.68ZM62.0094 40.256C62.0094 39.9333 61.9361 39.7133 61.7894 39.596C61.6721 39.4787 61.3934 39.376 60.9534 39.288L59.4134 38.936V38.144L70.0614 36.824H70.8094V56.888C70.8094 57.2107 70.8681 57.4307 70.9854 57.548C71.1321 57.6653 71.4254 57.768 71.8654 57.856L73.4054 58.208V59H64.4734C63.6227 59 63.0067 58.824 62.6254 58.472C62.2734 58.0907 62.0974 57.504 62.0974 56.712V56.228C61.0414 57.1373 59.7067 57.9147 58.0934 58.56C56.4801 59.2053 54.6907 59.528 52.7254 59.528C49.9974 59.528 48.0467 58.956 46.8734 57.812C45.7001 56.668 45.1134 54.952 45.1134 52.664V40.256C45.1134 39.9333 45.0401 39.7133 44.8934 39.596C44.7761 39.4787 44.4974 39.376 44.0574 39.288L42.5174 38.936V38.144L53.1654 36.824H53.9134V53.456C53.9134 54.776 54.1187 55.7147 54.5294 56.272C54.9694 56.8293 55.6881 57.108 56.6854 57.108C58.4454 57.108 60.2201 56.3747 62.0094 54.908V40.256ZM83.7295 47.736C83.7588 50.992 84.2722 53.4707 85.2695 55.172C86.2962 56.8733 88.2028 57.724 90.9895 57.724C92.3682 57.724 93.5855 57.5187 94.6415 57.108C95.7268 56.6973 96.8415 56.1107 97.9855 55.348L98.5575 56.184C95.8295 58.4133 92.2215 59.528 87.7335 59.528C83.6855 59.528 80.4882 58.56 78.1415 56.624C75.8242 54.6587 74.6655 51.7987 74.6655 48.044C74.6655 44.4947 75.8535 41.7813 78.2295 39.904C80.6055 38.0267 83.9348 37.088 88.2175 37.088C90.6522 37.088 92.7055 37.4693 94.3775 38.232C96.0495 38.9947 97.2815 40.0213 98.0735 41.312C98.8948 42.5733 99.3055 43.9813 99.3055 45.536C99.3055 46.328 99.2322 47.0613 99.0855 47.736H83.7295ZM87.9535 38.144C86.3402 38.144 85.2402 38.8187 84.6535 40.168C84.0668 41.5173 83.7588 43.6587 83.7295 46.592H91.1215V43.292C91.1215 41.5027 90.9015 40.1973 90.4615 39.376C90.0508 38.5547 89.2148 38.144 87.9535 38.144ZM128.862 56.888C128.862 57.2107 128.921 57.4307 129.038 57.548C129.185 57.6653 129.478 57.768 129.918 57.856L131.458 58.208V59H122.306C121.514 59 120.942 58.7947 120.59 58.384C120.238 57.9733 120.062 57.3573 120.062 56.536V43.16C120.062 41.84 119.842 40.9013 119.402 40.344C118.992 39.7867 118.288 39.508 117.29 39.508C115.53 39.508 113.726 40.2413 111.878 41.708V56.888C111.878 57.2107 111.937 57.4453 112.054 57.592C112.201 57.7093 112.48 57.812 112.89 57.9L114.386 58.208V59H100.482V58.208L102.022 57.856C102.462 57.768 102.741 57.6653 102.858 57.548C103.005 57.4307 103.078 57.2107 103.078 56.888V40.256C103.078 39.9333 103.005 39.7133 102.858 39.596C102.741 39.4787 102.462 39.376 102.022 39.288L100.482 38.936V38.144L111.042 36.824H111.79V40.388C112.905 39.4787 114.269 38.7013 115.882 38.056C117.496 37.4107 119.285 37.088 121.25 37.088C123.978 37.088 125.929 37.66 127.102 38.804C128.276 39.948 128.862 41.664 128.862 43.952V56.888ZM160.082 48.308C160.082 52.092 158.894 54.908 156.518 56.756C154.172 58.604 150.784 59.528 146.354 59.528C141.925 59.528 138.522 58.604 136.146 56.756C133.8 54.908 132.626 52.092 132.626 48.308C132.626 44.524 133.8 41.708 136.146 39.86C138.522 38.012 141.925 37.088 146.354 37.088C150.784 37.088 154.172 38.012 156.518 39.86C158.894 41.708 160.082 44.524 160.082 48.308ZM141.778 48.308C141.778 50.9187 141.896 52.928 142.13 54.336C142.394 55.744 142.849 56.7707 143.494 57.416C144.14 58.0613 145.093 58.384 146.354 58.384C147.616 58.384 148.569 58.0613 149.214 57.416C149.86 56.7707 150.3 55.744 150.534 54.336C150.798 52.928 150.93 50.9187 150.93 48.308C150.93 45.6973 150.798 43.688 150.534 42.28C150.3 40.872 149.86 39.8453 149.214 39.2C148.569 38.5547 147.616 38.232 146.354 38.232C145.093 38.232 144.14 38.5547 143.494 39.2C142.849 39.8453 142.394 40.872 142.13 42.28C141.896 43.688 141.778 45.6973 141.778 48.308Z" fill="#E23125"/>
</svg>
